<?xml version="1.0" encoding="utf-8"?>
<!-- Generator: Adobe Illustrator 14.0.0, SVG Export Plug-In . SVG Version: 6.00 Build 43363)  -->
<!DOCTYPE svg PUBLIC "-//W3C//DTD SVG 1.1//EN" "http://www.w3.org/Graphics/SVG/1.1/DTD/svg11.dtd">
<svg version="1.1" id="Layer_1" xmlns="http://www.w3.org/2000/svg" xmlns:xlink="http://www.w3.org/1999/xlink" x="0px" y="0px"
	 width="992.13px" height="629.629px" viewBox="0 0 992.13 629.629" enable-background="new 0 0 992.13 629.629"
	 xml:space="preserve">
<path d="M775.939,234.755"/>
<g>
	<polygon points="336.983,418.414 345.896,418.414 341.415,404.242 	"/>
	<path d="M711.353,173.463v9.961h-7.023v-47.865l-39.622,22.308v24.13h-24.115v-54.64h-6.886v3.961h-15.671v-4.869h-8.311v4.636
		h-56.273v-4.636h-9.26v4.588h-14.436l-2.66-2.61h-7.598v17.104l-3.324,0.466v-38.445l-4.411-7.689l-2-16.076l-1.612-2.563
		l-1-19.106l-2.137-7.223l-3.087-20.038l-2.374,20.504l-1.425,6.058l-1,18.873l-1.729,1.629l-3,18.525l-3.768,6.64v29.591
		c0,0-0.711-0.698-2.608,1.165v20.545h-12.11v1.834h-7.598v2.433h-3.086v-4.268h-13.06v-37.556h-3.324V96.599l-1.662-1.165v-7.223
		l-2.375-6.291l-2.137,5.592v5.825l-1.662,2.33v10.252h-13.771v-9.786l-2.137-1.165v-6.757l-2.137-5.126l-1.425,4.893v5.592
		l-1.899,1.864v26.562h-2.612v36.392l-5.362,0.373c-5.129-4.311-11.214-9.017-18.208-13.733
		c-21.899-14.768-57.048-32.276-100.105-31.699c-2.02,0.026-4.016,0.099-6,0.194c-0.804-0.04-1.603-0.086-2.415-0.117
		c-42.526-1.602-78.105,17.308-100.474,33.442c-22.201,16.013-35.779,32.106-38.3,35.201L143,182.066l0.588,119.52v164.263
		c0,38.975,45.194,80.39,84.91,80.39h534.442c39.715,0,84.925-41.415,84.925-80.39V301.586l-0.117-28.881V173.58 M167.583,181.657
		l-13.023,0.217l0.999-1.162c0.13-0.152,4.367-5.001,12.025-11.555V181.657z M182.279,181.412l-13.045,0.217v-13.865
		c3.678-3.065,8.047-6.435,13.045-9.835V181.412z M402.483,159.259l-7.344,0.51c-0.876-0.843-1.777-1.696-2.732-2.571l3.684-2.866
		C398.341,155.999,400.472,157.647,402.483,159.259z M388.538,148.994c1.941,1.307,3.808,2.616,5.61,3.918l-3.486,2.712
		c-2.972-2.642-6.289-5.392-9.961-8.171l2.486-1.934C385.047,146.687,386.838,147.849,388.538,148.994z M388.621,160.232v7.222
		h-2.411v-9.374C387.042,158.805,387.841,159.522,388.621,160.232z M381.074,178v0.101l-4.818,0.08
		c-2.292-1.994-4.58-3.916-6.857-5.752l2.039-1.586C374.633,173.094,377.847,175.48,381.074,178z M362.465,159.02v-18.035
		c3.697,2.173,7.094,4.368,10.19,6.52v18.191C369.226,163.323,365.825,161.098,362.465,159.02z M374.344,166.874v-18.178
		c0.696,0.498,1.38,0.992,2.042,1.483c2.95,2.183,5.672,4.359,8.182,6.488v10.786h-3.494v4.341
		C378.821,170.09,376.577,168.447,374.344,166.874z M350.586,129.139c11.599,4.456,21.842,9.796,30.501,15.082l-2.311,1.798
		c-7.456-5.474-16.857-11.367-28.19-16.629V129.139z M350.586,134.656c3.602,1.732,6.99,3.526,10.17,5.343v17.979
		c-3.016-1.83-5.998-3.548-8.938-5.156l-0.069-0.075l-0.026,0.023c-0.379-0.208-0.758-0.412-1.136-0.616V134.656z M369.453,169.456
		l-1.919,1.493c-6.202-4.898-12.327-9.229-18.311-13.055l0.612-0.551C356.24,160.857,362.8,164.87,369.453,169.456z
		 M369.001,178.302l-6.537,0.109v-5.347c0.838,0.647,1.678,1.306,2.519,1.974l0.405,0.511l0.121-0.094
		C366.671,176.383,367.835,177.334,369.001,178.302z M360.756,171.757v6.682l-10.17,0.169v-14.104
		C353.939,166.755,357.333,169.168,360.756,171.757z M349.734,128.82h-0.38c-0.633-0.288-1.275-0.573-1.92-0.856
		C348.208,128.244,348.972,128.532,349.734,128.82z M338.635,129.482c3.573,1.382,6.977,2.844,10.221,4.358v17.39
		c-3.476-1.834-6.886-3.517-10.221-5.065V129.482z M347.842,156.263l-0.491,0.442c-2.671-1.669-5.311-3.238-7.915-4.714
		C342.202,153.321,345.006,154.744,347.842,156.263z M338.635,157.045c3.352,1.939,6.763,4.038,10.221,6.311v15.282l-10.221,0.17
		V157.045z M326.23,125.242c3.75,1.119,7.347,2.337,10.798,3.631v16.55c-3.704-1.683-7.31-3.197-10.798-4.558V125.242z
		 M326.23,150.425c3.512,1.719,7.116,3.61,10.798,5.696v22.713l-10.798,0.18V150.425z M312.36,121.739
		c3.904,0.814,7.678,1.737,11.313,2.759v15.389c-3.942-1.479-7.721-2.762-11.313-3.875V121.739z M312.36,144.292
		c3.627,1.433,7.41,3.063,11.313,4.905v29.86l-11.313,0.188V144.292z M298.511,119.43c3.878,0.486,7.641,1.088,11.291,1.791v14.017
		c-3.025-0.893-5.909-1.667-8.623-2.333c-0.902-0.221-1.789-0.43-2.668-0.632V119.43z M298.511,139.456
		c3.543,1.075,7.319,2.346,11.291,3.848v35.984l-11.291,0.188V139.456z M283.675,118.517c1.066-0.063,2.138-0.116,3.215-0.159
		c3.073,0.184,6.074,0.449,9.019,0.774v12.562c-4.406-0.949-8.499-1.666-12.233-2.205V118.517z M295.909,138.69v40.83l-7.486,0.125
		v-42.908c1.216,0.287,2.451,0.591,3.713,0.92C293.357,137.975,294.618,138.32,295.909,138.69z M283.675,135.688
		c0.822,0.168,1.658,0.347,2.506,0.534v43.458l-2.506,0.042V135.688z M269.641,119.944c3.717-0.533,7.512-0.951,11.38-1.241v10.423
		c-4.383-0.561-8.2-0.871-11.38-1.035V119.944z M281.021,135.17v44.597l-5.454,0.091v-45.607
		C277.303,134.512,279.122,134.816,281.021,135.17z M269.641,166.366v-32.878c1.159,0.124,2.372,0.27,3.635,0.439v45.97
		l-3.635,0.061V166.366z M253.789,122.973c4.381-1.049,8.889-1.956,13.524-2.686v7.706c-3.78-0.125-6.384-0.037-7.616,0.029
		c-2.895-0.064-4.905,0.014-5.908,0.071V122.973z M267.313,133.259v33.107v13.63l-3.617,0.061v-47.071
		C264.821,133.054,266.027,133.144,267.313,133.259z M253.789,169.31v-36.258c1.749-0.064,3.512-0.095,5.294-0.08l0.113,0.001
		l0.113-0.01c0.065-0.005,0.779-0.056,2.06-0.084v47.216l-24.423,0.407v-45.628c3.75-0.675,7.601-1.183,11.543-1.505v47.736h2.328
		v-47.908c0.214-0.013,0.43-0.021,0.645-0.034v36.147v11.794h2.328V169.31z M233.973,128.932c5.553-2.015,11.389-3.836,17.488-5.383
		v4.595c-6.051,0.057-11.891,0.609-17.488,1.549V128.932z M233.973,135.449c0.215-0.044,0.429-0.089,0.645-0.132v45.224
		l-0.645,0.011V135.449z M231.645,129.792v0.317c-0.573,0.108-1.144,0.219-1.711,0.336
		C230.5,130.226,231.072,130.008,231.645,129.792z M223.075,138.201c2.79-0.835,5.646-1.593,8.57-2.252v44.642l-8.57,0.143V138.201z
		 M219.111,139.451c0.542-0.181,1.088-0.355,1.635-0.53v41.851l-1.635,0.027V139.451z M188.155,181.314l-3.894,0.065V156.6
		c1.262-0.833,2.56-1.664,3.894-2.491V181.314z M192.106,181.249l-1.832,0.031V152.82c0.604-0.362,1.214-0.722,1.832-1.08V181.249z
		 M199.01,181.134l-4.76,0.079v-30.694c1.547-0.867,3.134-1.721,4.76-2.559V181.134z M206.876,181.003l-5.659,0.094v-34.251
		c1.839-0.909,3.727-1.792,5.659-2.646V181.003z M209.204,143.193c2.458-1.036,4.984-2.022,7.58-2.941v40.585l-7.58,0.126V143.193z
		 M780.284,421.619c0,34.05-27.702,61.752-61.753,61.752h-446.26c-34.05,0-61.751-27.702-61.751-61.752V287.372
		c0-34.048,27.701-61.749,61.751-61.749h446.26c34.051,0,61.753,27.701,61.753,61.749V421.619z"/>
	<path d="M437.721,410.957h4.4c3.646,0,7.418-2.668,7.418-7.133c0-5.318-3.538-6.052-7.361-6.052l-4.457,0.001V410.957z"/>
	<path d="M280.514,423.691c0-3.889-2.308-8.043-8.784-8.043h-4.798v14.834h6.62C276.763,430.482,280.514,428.703,280.514,423.691z"
		/>
	<path d="M451.303,423.691c0-3.889-2.308-8.043-8.783-8.043h-4.799v14.834h6.621C447.553,430.482,451.303,428.703,451.303,423.691z"
		/>
	<path d="M648.776,396.976c-1.49,0-2.71,0.496-3.729,1.52c-3.405,3.422-3.366,11.561-3.35,15.037l0.003,0.818
		c-0.001,2.61-0.003,6.979,0.933,10.611c1.095,4.25,3.104,6.315,6.143,6.315c3.037,0,7.075-1.777,7.075-17.15
		C655.852,398.753,651.813,396.976,648.776,396.976z"/>
	<path d="M266.932,410.957h4.4c3.646,0,7.417-2.668,7.417-7.133c0-5.318-3.538-6.052-7.361-6.052l-4.456,0.001V410.957z"/>
	<path d="M718.531,233.763h-446.26c-29.562,0-53.612,24.05-53.612,53.609v134.247c0,29.563,24.05,53.612,53.612,53.612h446.26
		c29.563,0,53.613-24.05,53.613-53.612V287.372C772.145,257.813,748.095,233.763,718.531,233.763z M690.243,267.191l3.943,58.317
		h0.208l11.829-37.46l11.726,37.46h0.207l3.736-58.317h8.405l-5.708,75.439h-8.924l-9.442-32.375l-9.547,32.375h-8.612
		l-6.227-75.439H690.243z M627.566,267.191h38.809v6.537H635.35v26.564h22.31v6.539h-22.31v28.535h31.752v6.537h-39.535V267.191z
		 M568.002,335.367h10.066v-61.638h-10.066v-6.537h28.019v6.537h-10.17v61.638h10.17v6.537h-28.019V335.367z M505.74,267.191
		l13.49,63.402h0.208l13.385-63.402h8.614l-16.914,75.439h-10.688l-16.603-75.439H505.74z M438.113,272.167l3.517-4.884
		c13.379,8.693,19.534,24.613,19.534,40.044c0,15.432-6.154,31.45-19.534,40.045l-3.517-4.786
		c11.525-8.204,15.725-21.585,15.725-35.259C453.838,293.752,449.639,280.372,438.113,272.167z M374.627,269.433h36.528v6.153
		h-29.204v25.003h21v6.153h-21v26.859h29.887v6.153h-37.212V269.433z M315.242,269.433h18.264c17.581,0,19.143,15.822,19.143,19.924
		c0,7.229-2.734,13.869-12.501,19.436l18.947,30.962h-8.888l-17.092-29.301c-3.516,0.098-7.032,0.098-10.548,0.195v29.105h-7.325
		V269.433z M280.47,267.284l3.516,4.884c-11.524,8.205-15.725,21.487-15.725,35.16c0,13.674,4.2,26.957,15.725,35.259l-3.516,4.786
		c-13.381-8.497-19.534-24.613-19.534-40.045C260.937,291.897,267.089,275.977,280.47,267.284z M273.836,435.173h-12.279v-42.092
		h9.148c3.669,0,13.417,0,13.417,10.912c0,3.629-1.707,6.715-4.832,8.783c4.553,2.48,6.597,5.811,6.597,10.686
		C285.888,429.282,281.748,435.173,273.836,435.173z M321.525,435.173h-23.134v-42.092h5.374v37.4h17.761V435.173z M350.907,435.173
		l-3.643-12.068h-11.647l-3.643,12.068h-5.781l15.219-46.735l15.278,46.735H350.907z M388.246,424.639
		c-0.485,7.095-4.926,11.331-11.878,11.331c-8.941,0-13.475-7.272-13.475-21.615c0-14.439,4.836-22.07,13.986-22.07
		c6.031,0,10.495,4.193,10.854,10.196l0.035,0.586h-5.399l-0.009-0.544c-0.054-3.214-2.335-5.547-5.425-5.547
		c-5.833,0-8.669,5.721-8.669,17.492c0,11.154,2.783,16.81,8.271,16.81c3.733,0,6.279-2.687,6.335-6.685l0.008-0.545h5.405
		L388.246,424.639z M419.938,435.173l-15.18-18.715v18.715h-5.374v-42.092h5.374v17.883c2.864-1.128,9.141-7.627,12.875-18.029
		l0.214-0.6l5.29,2.789l-3.656,6.136c-5.146,8.612-7.957,11.159-10.46,12.817l18.074,21.096H419.938z M444.626,435.173h-12.279
		v-42.092h9.148c3.669,0,13.417,0,13.417,10.912c0,3.629-1.708,6.715-4.833,8.783c4.554,2.48,6.598,5.811,6.598,10.686
		C456.678,429.282,452.538,435.173,444.626,435.173z M489.868,423.861c0,7.949-5.977,12.109-11.882,12.109
		c-5.77,0-11.937-3.779-11.937-14.387v-28.502h5.375v30.779c0,5.469,3.39,7.417,6.562,7.417c5.379,0,6.508-4.312,6.508-7.929
		v-30.268h5.374V423.861z M522.586,435.173l-9.957-17.069c-0.909,0.021-1.819,0.034-2.729,0.048
		c-0.853,0.011-1.703,0.022-2.555,0.043v16.979h-5.375v-42.092h11.198c11.382,0,11.71,10.921,11.71,12.166
		c0,4.947-2.251,8.621-7.074,11.52l11.265,18.406H522.586z M558.183,435.572h-4.966l-12.624-31.08v30.682h-5.374v-42.092h5.877
		l11.713,28.775v-28.775h5.374V435.572z M626.728,435.173h-24.046v-2.375c0-9.355,4.087-13.565,10.324-18.919l0.404-0.341
		c3.118-2.617,7.828-6.572,7.828-10.74c0-3.646-2.07-5.822-5.539-5.822c-5.973,0-6.751,6.135-6.848,8.014l-0.026,0.525h-5.381
		l0.034-0.584c0.448-7.801,5.152-12.646,12.279-12.646c6.595,0,10.855,4.104,10.855,10.457c0,5.819-4.337,9.672-8.162,13.07
		c-0.399,0.354-0.797,0.707-1.185,1.059l-2.96,2.676c-3.455,3.136-5.842,6.221-6.217,10.936h18.638V435.173z M661.228,414.362
		c0.001,2.896,0.002,8.29-1.512,12.903c-1.896,5.775-5.576,8.705-10.939,8.705c-5.33,0-9.012-3.087-10.938-9.173
		c-1.513-4.779-1.513-10.063-1.513-12.603l-0.006-0.541c-0.132-8.736,1.52-14.91,4.908-18.35c1.973-2.004,4.513-3.02,7.548-3.02
		c12.451,0,12.451,15.869,12.451,21.843V414.362z M695.044,435.173h-24.047v-2.375c0-9.355,4.088-13.565,10.325-18.919l0.404-0.341
		c3.117-2.617,7.828-6.572,7.828-10.74c0-3.646-2.07-5.822-5.538-5.822c-5.975,0-6.752,6.135-6.849,8.014l-0.026,0.525h-5.381
		l0.033-0.584c0.448-7.801,5.153-12.646,12.279-12.646c6.595,0,10.856,4.104,10.856,10.457c0,5.819-4.338,9.672-8.163,13.07
		c-0.399,0.354-0.795,0.707-1.185,1.059l-2.96,2.676c-3.454,3.136-5.842,6.221-6.216,10.936h18.638V435.173z M727.322,435.173
		h-20.403v-4.691h7.686v-32.688l-8.026,2.448v-4.396l13.4-4.218v38.853h7.344V435.173z M733.063,371.587H258.941
		c-2.049,0-3.711-1.662-3.711-3.711c0-2.05,1.662-3.711,3.711-3.711h474.122c2.049,0,3.711,1.661,3.711,3.711
		C736.773,369.925,735.111,371.587,733.063,371.587z"/>
	<path d="M519.505,405.019c0-5.351-2.224-7.246-8.499-7.246h-3.66v15.688h3.489C516.507,413.46,519.505,410.542,519.505,405.019z"/>
	<path d="M345.324,288.967c0-9.377-3.907-13.381-15.529-13.381h-7.228v28.813h6.935C339.464,304.398,345.324,299.32,345.324,288.967
		z"/>
</g>
</svg>
