<?xml version="1.0" encoding="utf-8"?>
<!-- Generator: Adobe Illustrator 14.0.0, SVG Export Plug-In . SVG Version: 6.00 Build 43363)  -->
<!DOCTYPE svg PUBLIC "-//W3C//DTD SVG 1.1//EN" "http://www.w3.org/Graphics/SVG/1.1/DTD/svg11.dtd">
<svg version="1.1" id="Layer_1" xmlns="http://www.w3.org/2000/svg" xmlns:xlink="http://www.w3.org/1999/xlink" x="0px" y="0px"
	 width="992.13px" height="629.629px" viewBox="0 0 992.13 629.629" enable-background="new 0 0 992.13 629.629"
	 xml:space="preserve">
<g>
	<path d="M775.939,234.755"/>
	<g>
		<polygon points="333.983,419.096 342.896,419.096 338.415,404.924 		"/>
		<path d="M497.988,34.601 M469.974,159.966h-7.598v2.433 M482.084,137.586l-48.298-0.744l0.444,10.289h-23.141l0.152,11.162
			l-5.514,0.21c-5.129-4.311-11.214-9.017-18.208-13.733c-21.899-14.768-57.048-32.276-100.105-31.699
			c-2.02,0.026-4.016,0.099-6,0.194c-0.804-0.04-1.603-0.086-2.415-0.117c-42.526-1.602-78.105,17.308-100.474,33.442
			c-22.201,16.013-35.779,32.106-38.3,35.201l-1.164,0.019l0.588,119.52v164.263c0,38.975,45.194,80.39,84.91,80.39H759
			c39.715,0,84.926-41.415,84.926-80.39V301.331l-0.117-28.881V166.324l-136.395-0.117v16.961h-7.023v-44.573l0.682-0.373
			l0.047-3.094l-41.875,18.75l0.016,2.578l1.508-0.075v25.359h-23.115v-54.64h-7.885v3.961h-15.672v-4.869h-8.311v12.636h-56.273
			v-10.636l-26.355-0.022h-7.598v8.493 M163.644,181.401l-13.023,0.217l0.999-1.162c0.13-0.152,4.367-5.001,12.025-11.555V181.401z
			 M178.34,181.156l-13.045,0.217v-13.865c3.678-3.065,8.047-6.435,13.045-9.835V181.156z M398.544,159.003l-7.344,0.51
			c-0.876-0.843-1.777-1.696-2.732-2.571l3.684-2.866C394.402,155.743,396.533,157.392,398.544,159.003z M384.599,148.738
			c1.941,1.307,3.808,2.616,5.61,3.918l-3.486,2.712c-2.972-2.642-6.289-5.392-9.961-8.171l2.486-1.934
			C381.108,146.431,382.899,147.593,384.599,148.738z M384.682,159.976v7.222h-2.411v-9.374
			C383.103,158.549,383.902,159.266,384.682,159.976z M377.135,177.745v0.101l-4.818,0.08c-2.292-1.994-4.58-3.916-6.857-5.752
			l2.039-1.586C370.694,172.838,373.908,175.224,377.135,177.745z M358.526,158.764v-18.035c3.697,2.173,7.094,4.368,10.19,6.52
			v18.191C365.287,163.067,361.886,160.842,358.526,158.764z M370.405,166.618V148.44c0.696,0.498,1.38,0.992,2.042,1.483
			c2.95,2.183,5.672,4.359,8.182,6.488v10.786h-3.494v4.341C374.882,169.834,372.638,168.191,370.405,166.618z M346.647,128.883
			c11.599,4.456,21.842,9.796,30.501,15.082l-2.311,1.798c-7.456-5.474-16.857-11.367-28.19-16.629V128.883z M346.647,134.4
			c3.602,1.732,6.99,3.526,10.17,5.343v17.979c-3.016-1.83-5.998-3.548-8.938-5.156l-0.069-0.075l-0.026,0.023
			c-0.379-0.208-0.758-0.412-1.136-0.616V134.4z M365.514,169.2l-1.919,1.493c-6.202-4.898-12.327-9.229-18.311-13.055l0.612-0.551
			C352.301,160.602,358.861,164.614,365.514,169.2z M365.063,178.046l-6.537,0.109v-5.347c0.838,0.647,1.678,1.306,2.519,1.974
			l0.405,0.511l0.121-0.094C362.732,176.127,363.896,177.078,365.063,178.046z M356.817,171.501v6.682l-10.17,0.169v-14.104
			C350,166.499,353.394,168.912,356.817,171.501z M345.795,128.564h-0.38c-0.633-0.288-1.275-0.573-1.92-0.856
			C344.269,127.988,345.033,128.276,345.795,128.564z M334.696,129.226c3.573,1.382,6.977,2.844,10.221,4.358v17.39
			c-3.476-1.834-6.886-3.517-10.221-5.065V129.226z M343.903,156.007l-0.491,0.442c-2.671-1.669-5.311-3.238-7.915-4.714
			C338.263,153.065,341.067,154.488,343.903,156.007z M334.696,156.789c3.352,1.939,6.763,4.038,10.221,6.311v15.282l-10.221,0.17
			V156.789z M322.292,124.986c3.75,1.119,7.347,2.337,10.798,3.631v16.55c-3.704-1.683-7.31-3.197-10.798-4.558V124.986z
			 M322.292,150.169c3.512,1.719,7.116,3.61,10.798,5.696v22.713l-10.798,0.18V150.169z M308.421,121.483
			c3.904,0.814,7.678,1.737,11.313,2.759v15.389c-3.942-1.479-7.721-2.762-11.313-3.875V121.483z M308.421,144.036
			c3.627,1.433,7.41,3.063,11.313,4.905v29.86l-11.313,0.188V144.036z M294.572,119.174c3.878,0.486,7.641,1.088,11.291,1.791
			v14.017c-3.025-0.893-5.909-1.667-8.623-2.333c-0.902-0.221-1.789-0.43-2.668-0.632V119.174z M294.572,139.2
			c3.543,1.075,7.319,2.346,11.291,3.848v35.984l-11.291,0.188V139.2z M279.736,118.261c1.066-0.063,2.138-0.116,3.215-0.159
			c3.073,0.184,6.074,0.449,9.019,0.774v12.562c-4.406-0.949-8.499-1.666-12.233-2.205V118.261z M291.97,138.434v40.83l-7.486,0.125
			V136.48c1.216,0.287,2.451,0.591,3.713,0.92C289.418,137.719,290.679,138.064,291.97,138.434z M279.736,135.433
			c0.822,0.168,1.658,0.347,2.506,0.534v43.458l-2.506,0.042V135.433z M265.702,119.688c3.717-0.533,7.512-0.951,11.38-1.241v10.423
			c-4.383-0.561-8.2-0.871-11.38-1.035V119.688z M277.082,134.915v44.597l-5.454,0.091v-45.607
			C273.364,134.256,275.183,134.56,277.082,134.915z M265.702,166.11v-32.878c1.159,0.124,2.372,0.27,3.635,0.439v45.97
			l-3.635,0.061V166.11z M249.85,122.717c4.381-1.049,8.889-1.956,13.524-2.686v7.706c-3.78-0.125-6.384-0.037-7.616,0.029
			c-2.895-0.064-4.905,0.014-5.908,0.071V122.717z M263.374,133.003v33.107v13.63l-3.617,0.061v-47.071
			C260.882,132.798,262.088,132.888,263.374,133.003z M249.85,169.054v-36.258c1.749-0.064,3.512-0.095,5.294-0.08l0.113,0.001
			l0.113-0.01c0.065-0.005,0.779-0.056,2.06-0.084v47.216l-24.423,0.407v-45.628c3.75-0.675,7.601-1.183,11.543-1.505v47.736h2.328
			V132.94c0.214-0.013,0.43-0.021,0.645-0.034v36.147v11.794h2.328V169.054z M230.034,128.676
			c5.553-2.015,11.389-3.836,17.488-5.383v4.595c-6.051,0.057-11.891,0.609-17.488,1.549V128.676z M230.034,135.193
			c0.215-0.044,0.429-0.089,0.645-0.132v45.224l-0.645,0.011V135.193z M227.706,129.537v0.317c-0.573,0.108-1.144,0.219-1.711,0.336
			C226.562,129.97,227.133,129.752,227.706,129.537z M219.136,137.945c2.79-0.835,5.646-1.593,8.57-2.252v44.642l-8.57,0.143
			V137.945z M215.172,139.195c0.542-0.181,1.088-0.355,1.635-0.53v41.851l-1.635,0.027V139.195z M184.216,181.059l-3.894,0.065
			v-24.779c1.262-0.833,2.56-1.664,3.894-2.491V181.059z M188.167,180.993l-1.832,0.031v-28.459c0.604-0.362,1.214-0.722,1.832-1.08
			V180.993z M195.071,180.878l-4.76,0.079v-30.694c1.547-0.867,3.134-1.721,4.76-2.559V180.878z M202.937,180.747l-5.659,0.094
			V146.59c1.839-0.909,3.727-1.792,5.659-2.646V180.747z M205.265,142.938c2.458-1.036,4.984-2.022,7.58-2.941v40.585l-7.58,0.126
			V142.938z M776.346,421.363c0,34.05-27.703,61.752-61.754,61.752H268.333c-34.05,0-61.751-27.702-61.751-61.752V287.116
			c0-34.048,27.701-61.749,61.751-61.749h446.259c34.051,0,61.754,27.701,61.754,61.749V421.363z"/>
		<path d="M434.721,411.639h4.4c3.646,0,7.418-2.668,7.418-7.133c0-5.318-3.538-6.052-7.361-6.052l-4.457,0.001V411.639z"/>
		<path d="M277.514,424.374c0-3.889-2.308-8.043-8.784-8.043h-4.798v14.834h6.62C273.763,431.165,277.514,429.385,277.514,424.374z"
			/>
		<path d="M448.303,424.374c0-3.889-2.308-8.043-8.783-8.043h-4.799v14.834h6.621C444.553,431.165,448.303,429.385,448.303,424.374z
			"/>
		<path d="M645.776,397.659c-1.49,0-2.71,0.496-3.729,1.52c-3.405,3.422-3.366,11.561-3.35,15.037l0.003,0.818
			c-0.001,2.61-0.003,6.979,0.933,10.611c1.095,4.25,3.104,6.315,6.143,6.315c3.037,0,7.075-1.777,7.075-17.15
			C652.852,399.436,648.813,397.659,645.776,397.659z"/>
		<path d="M263.932,411.639h4.4c3.646,0,7.417-2.668,7.417-7.133c0-5.318-3.538-6.052-7.361-6.052l-4.456,0.001V411.639z"/>
		<path d="M715.531,234.445h-446.26c-29.562,0-53.612,24.05-53.612,53.609v134.247c0,29.563,24.05,53.612,53.612,53.612h446.26
			c29.563,0,53.613-24.05,53.613-53.612V288.055C769.145,258.495,745.095,234.445,715.531,234.445z M687.243,267.874l3.943,58.317
			h0.208l11.829-37.46l11.726,37.46h0.207l3.736-58.317h8.405l-5.708,75.439h-8.924l-9.442-32.375l-9.547,32.375h-8.612
			l-6.227-75.439H687.243z M624.566,267.874h38.809v6.537H632.35v26.564h22.31v6.539h-22.31v28.535h31.752v6.537h-39.535V267.874z
			 M565.002,336.049h10.066v-61.638h-10.066v-6.537h28.019v6.537h-10.17v61.638h10.17v6.537h-28.019V336.049z M502.74,267.874
			l13.49,63.402h0.208l13.385-63.402h8.614l-16.914,75.439h-10.688l-16.603-75.439H502.74z M435.113,272.85l3.517-4.884
			c13.379,8.693,19.534,24.613,19.534,40.044c0,15.432-6.154,31.45-19.534,40.045l-3.517-4.786
			c11.525-8.204,15.725-21.585,15.725-35.259C450.838,294.435,446.639,281.055,435.113,272.85z M371.627,270.115h36.528v6.153
			h-29.204v25.003h21v6.153h-21v26.859h29.887v6.153h-37.212V270.115z M312.242,270.115h18.264
			c17.581,0,19.143,15.822,19.143,19.924c0,7.229-2.734,13.869-12.501,19.436l18.947,30.962h-8.888l-17.092-29.301
			c-3.516,0.098-7.032,0.098-10.548,0.195v29.105h-7.325V270.115z M277.47,267.966l3.516,4.884
			c-11.524,8.205-15.725,21.487-15.725,35.16c0,13.674,4.2,26.957,15.725,35.259l-3.516,4.786
			c-13.381-8.497-19.534-24.613-19.534-40.045C257.937,292.58,264.089,276.66,277.47,267.966z M270.836,435.856h-12.279v-42.092
			h9.148c3.669,0,13.417,0,13.417,10.912c0,3.629-1.707,6.715-4.832,8.783c4.553,2.48,6.597,5.811,6.597,10.686
			C282.888,429.964,278.748,435.856,270.836,435.856z M318.525,435.856h-23.134v-42.092h5.374v37.4h17.761V435.856z
			 M347.907,435.856l-3.643-12.068h-11.647l-3.643,12.068h-5.781l15.219-46.735l15.278,46.735H347.907z M385.246,425.322
			c-0.485,7.095-4.926,11.331-11.878,11.331c-8.941,0-13.475-7.272-13.475-21.615c0-14.439,4.836-22.07,13.986-22.07
			c6.031,0,10.495,4.193,10.854,10.196l0.035,0.586h-5.399l-0.009-0.544c-0.054-3.214-2.335-5.547-5.425-5.547
			c-5.833,0-8.669,5.721-8.669,17.492c0,11.154,2.783,16.81,8.271,16.81c3.733,0,6.279-2.687,6.335-6.685l0.008-0.545h5.405
			L385.246,425.322z M416.938,435.856l-15.18-18.715v18.715h-5.374v-42.092h5.374v17.883c2.864-1.128,9.141-7.627,12.875-18.029
			l0.214-0.6l5.29,2.789l-3.656,6.136c-5.146,8.612-7.957,11.159-10.46,12.817l18.074,21.096H416.938z M441.626,435.856h-12.279
			v-42.092h9.148c3.669,0,13.417,0,13.417,10.912c0,3.629-1.708,6.715-4.833,8.783c4.554,2.48,6.598,5.811,6.598,10.686
			C453.678,429.964,449.538,435.856,441.626,435.856z M486.868,424.543c0,7.949-5.977,12.109-11.882,12.109
			c-5.77,0-11.937-3.779-11.937-14.387v-28.502h5.375v30.779c0,5.469,3.39,7.417,6.562,7.417c5.379,0,6.508-4.312,6.508-7.929
			v-30.268h5.374V424.543z M519.586,435.856l-9.957-17.069c-0.909,0.021-1.819,0.034-2.729,0.048
			c-0.853,0.011-1.703,0.022-2.555,0.043v16.979h-5.375v-42.092h11.198c11.382,0,11.71,10.921,11.71,12.166
			c0,4.947-2.251,8.621-7.074,11.52l11.265,18.406H519.586z M555.183,436.254h-4.966l-12.624-31.08v30.682h-5.374v-42.092h5.877
			l11.713,28.775v-28.775h5.374V436.254z M623.728,435.856h-24.046v-2.375c0-9.355,4.087-13.565,10.324-18.919l0.404-0.341
			c3.118-2.617,7.828-6.572,7.828-10.74c0-3.646-2.07-5.822-5.539-5.822c-5.973,0-6.751,6.135-6.848,8.014l-0.026,0.525h-5.381
			l0.034-0.584c0.448-7.801,5.152-12.646,12.279-12.646c6.595,0,10.855,4.104,10.855,10.457c0,5.819-4.337,9.672-8.162,13.07
			c-0.399,0.354-0.797,0.707-1.185,1.059l-2.96,2.676c-3.455,3.136-5.842,6.221-6.217,10.936h18.638V435.856z M658.228,415.044
			c0.001,2.896,0.002,8.29-1.512,12.903c-1.896,5.775-5.576,8.705-10.939,8.705c-5.33,0-9.012-3.087-10.938-9.173
			c-1.513-4.779-1.513-10.063-1.513-12.603l-0.006-0.541c-0.132-8.736,1.52-14.91,4.908-18.35c1.973-2.004,4.513-3.02,7.548-3.02
			c12.451,0,12.451,15.869,12.451,21.843V415.044z M692.044,435.856h-24.047v-2.375c0-9.355,4.088-13.565,10.325-18.919l0.404-0.341
			c3.117-2.617,7.828-6.572,7.828-10.74c0-3.646-2.07-5.822-5.538-5.822c-5.975,0-6.752,6.135-6.849,8.014l-0.026,0.525h-5.381
			l0.033-0.584c0.448-7.801,5.153-12.646,12.279-12.646c6.595,0,10.856,4.104,10.856,10.457c0,5.819-4.338,9.672-8.163,13.07
			c-0.399,0.354-0.795,0.707-1.185,1.059l-2.96,2.676c-3.454,3.136-5.842,6.221-6.216,10.936h18.638V435.856z M724.322,435.856
			h-20.403v-4.691h7.686v-32.688l-8.026,2.448v-4.396l13.4-4.218v38.853h7.344V435.856z M730.063,372.27H255.941
			c-2.049,0-3.711-1.662-3.711-3.711c0-2.05,1.662-3.711,3.711-3.711h474.122c2.049,0,3.711,1.661,3.711,3.711
			C733.773,370.608,732.111,372.27,730.063,372.27z"/>
		<path d="M516.505,405.702c0-5.351-2.224-7.246-8.499-7.246h-3.66v15.688h3.489C513.507,414.143,516.505,411.224,516.505,405.702z"
			/>
		<path d="M342.324,289.649c0-9.377-3.907-13.381-15.529-13.381h-7.228v28.813h6.935
			C336.464,305.081,342.324,300.002,342.324,289.649z"/>
	</g>
	<polyline points="637.668,158.387 637.668,121.992 634.345,116.319 634.345,96.599 633.353,93.555 631.909,88.004 630.402,80.759 
		628.86,88.374 627.316,94.084 626.51,96.219 626.51,105.919 612.738,105.919 612.738,96.133 611.611,93.153 610.45,87.746 
		608.84,79.759 607.039,87.978 606.011,92.953 605.14,95.434 605.14,116.773 602.527,121.996 602.527,158.387 	"/>
	<polygon points="490.932,8 495.426,8 494.805,11.21 499.92,112.438 502.317,94.731 502.78,94.802 504.285,111.939 506.104,103.909 
		506.559,103.765 507.89,111.611 510.021,93.962 511.004,93.798 511.564,111.743 513.462,104.073 514.164,104.034 515.061,112.191 
		517.391,94.174 518.197,94.354 518.825,111.833 520.69,104.564 521.349,104.662 522.59,111.922 525.906,92.471 526.9,92.437 
		526.9,141.111 457.904,141.111 457.904,93.584 459.049,93.47 461.464,112.582 462.869,103.859 463.495,103.906 465.455,112.372 
		466.295,93.155 467.135,93.05 469.235,112.687 470.527,103.578 471.527,103.572 472.86,112.649 473.185,112.708 474.948,94.403 
		475.641,94.205 478.056,112.582 478.902,104.197 479.715,104.259 480.996,112.687 480.996,112.687 482.159,94.634 483.143,94.798 
		485.092,113.002 485.677,112.856 486.715,103.822 491.934,11.228 	"/>
</g>
</svg>
