<?xml version="1.0" encoding="UTF-8" standalone="no"?>
<svg
   xmlns:dc="http://purl.org/dc/elements/1.1/"
   xmlns:cc="http://creativecommons.org/ns#"
   xmlns:rdf="http://www.w3.org/1999/02/22-rdf-syntax-ns#"
   xmlns:svg="http://www.w3.org/2000/svg"
   xmlns="http://www.w3.org/2000/svg"
   xmlns:sodipodi="http://sodipodi.sourceforge.net/DTD/sodipodi-0.dtd"
   xmlns:inkscape="http://www.inkscape.org/namespaces/inkscape"
   version="1.1"
   id="Layer_1"
   x="0px"
   y="0px"
   width="992.13px"
   height="429.629px"
   viewBox="0 0 992.13 429.629"
   enable-background="new 0 0 992.13 429.629"
   xml:space="preserve"
   sodipodi:docname="review logo white back.svg"
   inkscape:version="1.0.1 (3bc2e813f5, 2020-09-07)"><metadata
   id="metadata85"><rdf:RDF><cc:Work
       rdf:about=""><dc:format>image/svg+xml</dc:format><dc:type
         rdf:resource="http://purl.org/dc/dcmitype/StillImage" /></cc:Work></rdf:RDF></metadata><defs
   id="defs83" /><sodipodi:namedview
   pagecolor="#ffffff"
   bordercolor="#666666"
   borderopacity="1"
   objecttolerance="10"
   gridtolerance="10"
   guidetolerance="10"
   inkscape:pageopacity="0"
   inkscape:pageshadow="2"
   inkscape:window-width="1920"
   inkscape:window-height="1027"
   id="namedview81"
   showgrid="false"
   inkscape:zoom="0.77400941"
   inkscape:cx="401.31106"
   inkscape:cy="50.068771"
   inkscape:window-x="-8"
   inkscape:window-y="-8"
   inkscape:window-maximized="1"
   inkscape:current-layer="Layer_1" />
<rect
   style="opacity:0.999;fill:#ffffff;fill-opacity:1;stroke:#000000;stroke-width:0.0319781;stroke-linecap:round;stroke-opacity:1"
   id="rect997"
   width="613.96802"
   height="276.96802"
   x="189.28949"
   y="74.527992"
   rx="80"
   ry="80" /><path
   d="M736.769,351.916H255.777c-36.7,0-66.557-29.858-66.557-66.559V140.663c0-36.698,29.857-66.555,66.557-66.555h480.991  c36.7,0,66.559,29.856,66.559,66.555v144.694C803.327,322.057,773.469,351.916,736.769,351.916L736.769,351.916z M255.777,82.881  c-31.862,0-57.784,25.921-57.784,57.781v144.694c0,31.863,25.922,57.785,57.784,57.785h480.991  c31.863,0,57.785-25.922,57.785-57.785V140.663c0-31.86-25.922-57.781-57.785-57.781H255.777L255.777,82.881z"
   id="path2" />
<g
   id="g12">
	<path
   d="M264.614,205.333c-14.422-9.158-21.054-26.528-21.054-43.161c0-16.632,6.632-33.791,21.054-43.16l3.79,5.264   c-12.422,8.843-16.949,23.159-16.949,37.896c0,14.738,4.527,29.055,16.949,38.003L264.614,205.333z"
   id="path4" />
	<path
   d="M302.092,121.327h19.686c18.949,0,20.633,17.054,20.633,21.476c0,7.79-2.947,14.948-13.475,20.948l20.422,33.371h-9.58   l-18.422-31.581c-3.79,0.105-7.579,0.105-11.369,0.211v31.37h-7.895V121.327z M317.461,159.014   c10.738,0,17.054-5.475,17.054-16.633c0-10.106-4.211-14.423-16.738-14.423h-7.79v31.056H317.461z"
   id="path6" />
	<path
   d="M405.47,127.958h-31.476v26.949h22.633v6.633h-22.633v28.949h32.213v6.632h-40.108v-75.795h39.371V127.958z"
   id="path8" />
	<path
   d="M438.316,119.011c14.421,9.369,21.054,26.528,21.054,43.16c0,16.633-6.633,33.897-21.054,43.161l-3.79-5.158   c12.422-8.843,16.949-23.265,16.949-38.003c0-14.632-4.526-29.054-16.949-37.896L438.316,119.011z"
   id="path10" />
</g>
<g
   id="g22">
	<path
   d="M531.237,123.279h8.738l-17.159,76.532h-10.843l-16.844-76.532h8.632l13.686,64.32h0.211L531.237,123.279z"
   id="path14" />
	<path
   d="M595.35,129.911h-10.316v62.531h10.316v6.632h-28.424v-6.632h10.212v-62.531h-10.212v-6.632h28.424V129.911z"
   id="path16" />
	<path
   d="M666.725,129.911h-31.476v26.949h22.633v6.633h-22.633v28.949h32.212v6.632h-40.107v-75.795h39.371V129.911z"
   id="path18" />
	<path
   d="M719.046,182.441h0.21l3.79-59.162h8.527l-5.79,76.532h-9.054l-9.579-32.845l-9.686,32.845h-8.737l-6.316-76.532h8.527   l4,59.162h0.211l12.001-38.003L719.046,182.441z"
   id="path20" />
</g>
<path
   d="M752.43,231.432H241.409c-2.209,0-4-1.791-4-4s1.791-4,4-4H752.43c2.209,0,4,1.791,4,4S754.639,231.432,752.43,231.432  L752.43,231.432z"
   id="path24" />
<g
   id="g78">
	<path
   d="M244.229,299.966v-45.367h9.86c3.955,0,14.461,0,14.461,11.762c0,3.911-1.84,7.236-5.208,9.467   c4.908,2.673,7.111,6.263,7.111,11.518c0,6.271-4.462,12.621-12.989,12.621H244.229z M257.157,294.91   c3.461,0,7.503-1.917,7.503-7.319c0-4.191-2.487-8.669-9.467-8.669h-5.172v15.988H257.157z M254.764,273.865   c3.93,0,7.995-2.875,7.995-7.688c0-5.732-3.813-6.522-7.934-6.522l-4.804,0.001v14.209H254.764z"
   id="path26" />
	<path
   d="M244.825,299.371v-44.176h9.265c5.092,0,13.866,0.613,13.866,11.166c0,4.234-2.208,7.485-5.829,9.511   c5.031,2.454,7.731,5.768,7.731,11.474c0,6.442-4.663,12.025-12.394,12.025H244.825z M249.426,274.46h5.338   c4.111,0,8.59-3.007,8.59-8.283c0-7.302-6.136-7.117-8.958-7.117h-4.97V274.46z M257.157,295.505c4.049,0,8.099-2.393,8.099-7.915   c0-4.908-3.067-9.265-10.062-9.265h-5.768v17.18H257.157z"
   id="path28" />
	<polygon
   points="283.93,299.966 283.93,254.599 289.722,254.599 289.722,294.91 308.865,294.91 308.865,299.966  "
   id="polygon30" />
	<path
   d="M289.126,295.505h19.143v3.865h-23.745v-44.176h4.602V295.505z"
   id="path32" />
	<path
   d="M340.533,299.966l-3.927-13.008h-12.553l-3.927,13.008h-6.231l16.403-50.372l16.467,50.372H340.533z M335.131,281.902   l-4.829-15.274l-4.776,15.274H335.131z"
   id="path34" />
	<path
   d="M345.945,299.371h-4.97l-3.927-13.008h-13.437l-3.927,13.008h-4.97l15.584-47.857L345.945,299.371z M324.716,282.498   h11.228l-5.645-17.854L324.716,282.498z"
   id="path36" />
	<path
   d="M367.975,300.826c-9.637,0-14.523-7.839-14.523-23.298c0-15.563,5.213-23.788,15.075-23.788   c6.5,0,11.311,4.52,11.699,10.99l0.038,0.632h-5.819l-0.01-0.586c-0.058-3.465-2.517-5.979-5.847-5.979   c-6.288,0-9.344,6.167-9.344,18.854c0,12.021,3,18.117,8.915,18.117c4.023,0,6.768-2.896,6.829-7.205l0.008-0.587h5.826   l-0.043,0.637C380.255,296.259,375.469,300.826,367.975,300.826L367.975,300.826z"
   id="path38" />
	<path
   d="M375.03,264.766c-0.061-3.682-2.7-6.565-6.442-6.565c-9.326,0-9.939,12.64-9.939,19.45c0,6.442,0.675,18.713,9.51,18.713   c4.602,0,7.362-3.436,7.424-7.792h4.602c-0.491,7.179-4.847,11.658-12.209,11.658c-12.148,0-13.928-13.314-13.928-22.702   c0-9.694,2.024-23.192,14.48-23.192c6.135,0,10.737,4.295,11.105,10.431H375.03z"
   id="path40" />
	<path
   d="M414.937,299.966l-16.362-20.171v20.171h-5.792v-45.367h5.792v19.274c3.086-1.216,9.852-8.22,13.877-19.433l0.231-0.646   l5.701,3.006l-3.941,6.613c-5.546,9.282-8.576,12.027-11.273,13.814l19.48,22.737H414.937z"
   id="path42" />
	<path
   d="M397.98,274.644c3.19-0.368,10.737-8.037,15.032-20.002l4.54,2.394l-3.62,6.074c-5.829,9.755-8.835,12.209-11.658,13.988   l19.082,22.272h-6.136l-16.873-20.8h-0.368v20.8h-4.602v-44.176h4.602V274.644z"
   id="path44" />
	<path
   d="M428.311,299.966v-45.367h9.86c3.955,0,14.462,0,14.462,11.762c0,3.911-1.841,7.236-5.209,9.467   c4.908,2.673,7.111,6.263,7.111,11.518c0,6.271-4.462,12.621-12.99,12.621H428.311z M441.239,294.91   c3.461,0,7.503-1.917,7.503-7.319c0-4.191-2.487-8.669-9.467-8.669h-5.172v15.988H441.239z M438.846,273.865   c3.93,0,7.995-2.875,7.995-7.688c0-5.732-3.813-6.522-7.934-6.522l-4.804,0.001v14.209H438.846z"
   id="path46" />
	<path
   d="M428.906,299.371v-44.176h9.265c5.092,0,13.866,0.613,13.866,11.166c0,4.234-2.208,7.485-5.829,9.511   c5.031,2.454,7.731,5.768,7.731,11.474c0,6.442-4.663,12.025-12.394,12.025H428.906z M433.508,274.46h5.338   c4.111,0,8.59-3.007,8.59-8.283c0-7.302-6.136-7.117-8.958-7.117h-4.97V274.46z M441.239,295.505c4.049,0,8.098-2.393,8.098-7.915   c0-4.908-3.066-9.265-10.062-9.265h-5.768v17.18H441.239z"
   id="path48" />
	<path
   d="M477.503,300.826c-6.22,0-12.866-4.073-12.866-15.506v-30.721h5.793v33.175c0,5.895,3.653,7.994,7.073,7.994   c5.797,0,7.013-4.647,7.013-8.546v-32.623h5.793v33.175C490.309,296.342,483.866,300.826,477.503,300.826L477.503,300.826z"
   id="path50" />
	<path
   d="M489.713,255.195v32.579c0,8.345-6.258,12.456-12.21,12.456c-4.785,0-12.271-2.7-12.271-14.91v-30.125h4.602v32.579   c0,6.382,4.11,8.59,7.669,8.59c5.646,0,7.608-4.172,7.608-9.142v-32.027H489.713z"
   id="path52" />
	<path
   d="M525.573,299.966l-10.732-18.397c-0.98,0.023-1.961,0.037-2.941,0.051c-0.918,0.013-1.835,0.025-2.752,0.047v18.3h-5.794   v-45.367h12.069c12.268,0,12.622,11.771,12.622,13.112c0,5.333-2.427,9.292-7.625,12.416l12.141,19.839H525.573z M512.907,276.564   c6.113,0,9.345-3.146,9.345-9.099c0-5.767-2.396-7.81-9.16-7.81h-3.944v16.908H512.907z"
   id="path54" />
	<path
   d="M503.949,255.195h11.474c11.044,0,12.026,9.939,12.026,12.517c0,4.54-1.719,8.712-7.854,12.209l11.902,19.45h-5.583   l-10.737-18.406c-2.209,0.061-4.418,0.061-6.626,0.122v18.284h-4.603V255.195z M512.907,277.16c6.259,0,9.94-3.19,9.94-9.694   c0-5.89-2.455-8.405-9.756-8.405h-4.54v18.1H512.907z"
   id="path56" />
	<polygon
   points="558.588,300.396 544.981,266.897 544.981,299.966 539.188,299.966 539.188,254.599 545.522,254.599    558.147,285.614 558.147,254.599 563.94,254.599 563.94,300.396  "
   id="polygon58" />
	<path
   d="M539.784,255.195h5.338l13.438,33.009h0.184v-33.009h4.602V299.8h-4.356l-14.479-35.647l-0.123,0.122v35.096h-4.602   V255.195z"
   id="path60" />
	<path
   d="M611.901,299.966v-2.56c0-10.083,4.406-14.621,11.129-20.392l0.436-0.367c3.36-2.82,8.438-7.083,8.438-11.575   c0-3.931-2.231-6.276-5.97-6.276c-6.438,0-7.277,6.612-7.381,8.639L618.523,268h-5.799l0.036-0.63   c0.483-8.407,5.554-13.631,13.234-13.631c7.108,0,11.701,4.425,11.701,11.271c0,6.272-4.675,10.425-8.798,14.088   c-0.431,0.382-0.857,0.762-1.276,1.141l-3.19,2.884c-3.724,3.38-6.297,6.705-6.7,11.786h20.088v5.057H611.901z"
   id="path62" />
	<path
   d="M637.224,295.505v3.865h-24.727v-1.964c0-9.693,3.988-13.988,10.921-19.94c3.497-2.944,9.081-7.424,9.081-12.394   c0-4.11-2.394-6.872-6.565-6.872c-5.399,0-7.73,4.418-7.976,9.204h-4.603c0.43-7.485,4.725-13.069,12.64-13.069   c6.504,0,11.105,3.988,11.105,10.676c0,6.627-5.399,10.737-9.878,14.787l-3.19,2.884c-3.988,3.62-6.688,7.179-6.934,12.823H637.224   z"
   id="path64" />
	<path
   d="M661.584,300.826c-5.745,0-9.712-3.327-11.788-9.887c-1.631-5.151-1.631-10.847-1.631-13.584l-0.006-0.583   c-0.142-9.416,1.638-16.07,5.289-19.777c2.127-2.159,4.864-3.255,8.136-3.255c13.42,0,13.42,17.104,13.42,23.543v0.253   c0.001,3.122,0.003,8.935-1.629,13.907C671.332,297.668,667.365,300.826,661.584,300.826L661.584,300.826z M661.584,258.796   c-1.606,0-2.921,0.535-4.019,1.638c-3.67,3.688-3.628,12.461-3.61,16.207l0.003,0.883c-0.001,2.813-0.003,7.522,1.006,11.438   c1.18,4.58,3.345,6.807,6.62,6.807c3.273,0,7.626-1.916,7.626-18.485C669.21,260.712,664.857,258.796,661.584,258.796   L661.584,258.796z"
   id="path66" />
	<path
   d="M661.584,300.23c-12.884,0-12.823-17.794-12.823-22.947c0-2.577-1.043-22.947,12.823-22.947   c12.763,0,12.824,16.566,12.824,22.947C674.408,283.418,674.592,300.23,661.584,300.23z M661.584,296.364   c4.05,0,8.222-2.883,8.222-19.081c0-15.646-3.804-19.082-8.222-19.082c-8.712,0-8.222,14.91-8.222,19.082   C653.362,282.927,653.24,296.364,661.584,296.364z"
   id="path68" />
	<path
   d="M685.534,299.966v-2.56c0-10.083,4.406-14.621,11.129-20.392l0.436-0.367c3.36-2.82,8.438-7.083,8.438-11.575   c0-3.931-2.231-6.276-5.97-6.276c-6.438,0-7.277,6.612-7.381,8.639L692.156,268h-5.799l0.036-0.63   c0.483-8.407,5.554-13.631,13.234-13.631c7.108,0,11.701,4.425,11.701,11.271c0,6.272-4.675,10.425-8.798,14.088   c-0.431,0.382-0.857,0.762-1.276,1.141l-3.19,2.884c-3.724,3.38-6.297,6.705-6.7,11.786h20.088v5.057H685.534z"
   id="path70" />
	<path
   d="M710.856,295.505v3.865H686.13v-1.964c0-9.693,3.988-13.988,10.921-19.94c3.497-2.944,9.081-7.424,9.081-12.394   c0-4.11-2.394-6.872-6.565-6.872c-5.399,0-7.73,4.418-7.976,9.204h-4.603c0.43-7.485,4.725-13.069,12.64-13.069   c6.504,0,11.105,3.988,11.105,10.676c0,6.627-5.399,10.737-9.878,14.787l-3.19,2.884c-3.988,3.62-6.688,7.179-6.934,12.823H710.856   z"
   id="path72" />
	<polygon
   points="724.252,299.966 724.252,294.91 732.535,294.91 732.535,259.679 723.885,262.318 723.885,257.581 738.328,253.034    738.328,294.91 746.243,294.91 746.243,299.966  "
   id="polygon74" />
	<path
   d="M737.732,295.505h7.915v3.865h-20.8v-3.865h8.283v-36.63l-8.65,2.639v-3.497l13.252-4.172V295.505z"
   id="path76" />
</g>
</svg>
